<svg id="Capa_1" enable-background="new 0 0 512 512" height="512" viewBox="0 0 512 512" width="512" xmlns="http://www.w3.org/2000/svg"><g><circle cx="256" cy="256" fill="#bad6e5" r="256"/><path d="m256 0c-5.19 0-10.339.173-15.453.478 134.188 7.991 240.548 119.327 240.548 255.522s-106.36 247.531-240.547 255.522c5.113.305 10.262.478 15.452.478 141.385 0 256-114.615 256-256s-114.615-256-256-256z" fill="#a6cee0"/><circle cx="256" cy="256" fill="#eaf6ff" r="187.587"/><g><g><g><path d="m52.401 250.043c-.785-3.628 1.526-7.22 5.161-7.977 61.714-12.87 124.854-19.28 187.833-19.104 70.371.216 140.731 8.679 209.244 25.159 3.609.868 5.809 4.527 4.915 8.129l-4.847 19.513c-.889 3.579-4.499 5.749-8.084 4.888-65.926-15.844-133.624-23.979-201.33-24.187-60.61-.199-121.332 5.989-180.705 18.359-3.611.752-7.155-1.529-7.935-5.134z" fill="#f9f7f8"/></g><path d="m454.638 248.121c-8.751-2.105-17.533-4.075-26.34-5.918l-4.498 18.107c-.889 3.579-4.498 5.749-8.084 4.888-65.926-15.843-133.624-23.979-201.33-24.187-53.857-.177-107.8 4.701-160.81 14.467l3.074 14.211c.78 3.605 4.324 5.886 7.935 5.134 59.373-12.37 120.096-18.558 180.705-18.359 67.706.208 135.403 8.343 201.33 24.187 3.586.862 7.195-1.309 8.084-4.888l4.847-19.513c.897-3.603-1.304-7.261-4.913-8.129z" fill="#efedef"/><g><path d="m364.667 297.273c-71.999-12.742-145.679-12.742-217.678 0-15.43 2.731-30.256-7.266-33.674-22.559-3.117-13.943-6.233-27.887-9.35-41.83-3.639-16.28 6.971-32.386 23.389-35.338 84.967-15.273 171.981-15.273 256.948 0 16.419 2.951 27.028 19.058 23.389 35.338-3.117 13.943-6.233 27.887-9.35 41.83-3.418 15.293-18.243 25.29-33.674 22.559z" fill="#f58a97"/></g><path d="m384.302 197.547c-3.708-.667-7.422-1.293-11.138-1.902 3.842 6.281 5.359 14.012 3.621 21.787-3.117 13.943-6.233 27.887-9.35 41.83-3.418 15.293-18.243 25.29-33.674 22.559-71.999-12.742-145.679-12.742-217.678 0-.057.01-.114.016-.171.026 5.759 11.122 18.204 17.705 31.076 15.427 71.999-12.742 145.679-12.742 217.678 0 15.43 2.731 30.256-7.266 33.674-22.559 3.117-13.943 6.233-27.887 9.35-41.83 3.64-16.281-6.969-32.387-23.388-35.338z" fill="#f07281"/><g><path d="m149.966 235.515c-.959-4.158 1.633-8.306 5.791-9.266 10.894-2.514 22.053-4.374 33.168-5.528 13.01-1.351 26.236-1.763 39.311-1.228 4.264.175 7.578 3.772 7.404 8.036s-3.774 7.581-8.036 7.404c-12.336-.505-24.811-.115-37.083 1.159-10.485 1.089-21.012 2.843-31.289 5.215-4.069.938-8.297-1.59-9.266-5.792z" fill="#f07281"/></g></g><g><g><g><path d="m72.419 117.717c-.708-3.272 1.376-6.51 4.653-7.193 55.646-11.605 112.578-17.384 169.365-17.226 63.452.195 126.894 7.825 188.67 22.686 3.254.783 5.238 4.082 4.431 7.33l-4.371 17.595c-.802 3.227-4.056 5.184-7.289 4.407-59.444-14.286-120.486-21.621-181.534-21.809-54.65-.179-109.402 5.4-162.938 16.554-3.256.678-6.452-1.378-7.155-4.629z" fill="#f9f7f8"/></g><path d="m435.108 115.984c-8.966-2.157-17.972-4.143-27.003-5.994l-3.842 15.466c-.802 3.227-4.056 5.184-7.289 4.407-59.444-14.286-120.486-21.621-181.534-21.809-47.679-.156-95.435 4.073-142.393 12.56l3.206 14.817c.703 3.251 3.899 5.308 7.155 4.629 53.535-11.154 108.287-16.733 162.938-16.554 61.049.188 122.09 7.523 181.534 21.809 3.233.777 6.487-1.18 7.289-4.407l4.371-17.595c.806-3.248-1.178-6.547-4.432-7.329z" fill="#efedef"/><g><path d="m353.983 160.303c-64.92-11.489-131.356-11.489-196.275 0-13.913 2.462-27.281-6.552-30.363-20.341-2.81-12.572-5.621-25.145-8.431-37.717-3.281-14.679 6.285-29.202 21.09-31.863 76.613-13.771 155.071-13.771 231.684 0 14.804 2.661 24.371 17.184 21.09 31.863-2.81 12.572-5.62 25.145-8.431 37.717-3.083 13.79-16.451 22.804-30.364 20.341z" fill="#f58a97"/></g><path d="m371.687 70.382c-4.137-.744-8.28-1.439-12.427-2.102 2.976 5.448 4.075 11.963 2.611 18.513-2.81 12.572-5.62 25.145-8.431 37.717-3.082 13.789-16.45 22.803-30.363 20.341-64.253-11.371-129.99-11.481-194.274-.343 4.705 11.158 16.588 17.975 28.904 15.796 64.92-11.489 131.355-11.489 196.275 0 13.913 2.462 27.281-6.552 30.363-20.341 2.81-12.572 5.62-25.145 8.431-37.717 3.282-14.68-6.285-29.203-21.089-31.864z" fill="#f07281"/><g><path d="m159.651 104.788c-.959-4.158 1.633-8.306 5.791-9.266 9.853-2.274 19.946-3.956 29.999-4.999 11.764-1.221 23.727-1.595 35.555-1.111 4.264.175 7.578 3.772 7.404 8.036s-3.764 7.576-8.036 7.404c-11.087-.454-22.301-.104-33.328 1.042-9.423.978-18.884 2.555-28.12 4.687-4.068.937-8.295-1.59-9.265-5.793z" fill="#f07281"/></g></g><g><g><path d="m72.419 379.383c-.708-3.272 1.376-6.51 4.653-7.193 55.646-11.605 112.578-17.384 169.365-17.225 63.452.195 126.894 7.825 188.67 22.686 3.254.783 5.238 4.082 4.431 7.33l-4.371 17.595c-.802 3.227-4.056 5.184-7.289 4.407-59.444-14.286-120.486-21.621-181.534-21.809-54.65-.179-109.402 5.4-162.938 16.554-3.256.678-6.452-1.378-7.155-4.629z" fill="#f9f7f8"/></g><path d="m435.108 377.65c-8.966-2.157-17.972-4.143-27.003-5.994l-3.842 15.466c-.802 3.227-4.056 5.184-7.289 4.407-59.444-14.286-120.486-21.621-181.534-21.809-47.679-.156-95.435 4.073-142.393 12.56l3.206 14.817c.703 3.251 3.899 5.308 7.155 4.629 53.535-11.154 108.287-16.733 162.938-16.554 61.049.188 122.09 7.523 181.534 21.809 3.233.777 6.487-1.18 7.289-4.407l4.371-17.595c.806-3.248-1.178-6.547-4.432-7.329z" fill="#efedef"/><g><path d="m353.983 421.969c-64.92-11.489-131.356-11.489-196.275 0-13.913 2.462-27.281-6.552-30.363-20.341-2.81-12.572-5.621-25.145-8.431-37.717-3.281-14.679 6.285-29.202 21.09-31.863 76.613-13.771 155.071-13.771 231.684 0 14.804 2.661 24.371 17.184 21.09 31.863-2.81 12.572-5.62 25.145-8.431 37.717-3.083 13.79-16.451 22.804-30.364 20.341z" fill="#f58a97"/></g><path d="m371.687 332.048c-4.137-.744-8.28-1.439-12.427-2.102 2.976 5.448 4.075 11.963 2.611 18.513-2.81 12.572-5.62 25.145-8.431 37.717-3.082 13.789-16.45 22.803-30.363 20.341-64.253-11.371-129.99-11.481-194.274-.343 4.705 11.158 16.588 17.975 28.904 15.796 64.92-11.489 131.355-11.489 196.275 0 13.913 2.462 27.281-6.552 30.363-20.341 2.81-12.572 5.62-25.145 8.431-37.717 3.282-14.68-6.285-29.203-21.089-31.864z" fill="#f07281"/><g><path d="m159.651 366.454c-.959-4.158 1.633-8.306 5.791-9.266 9.853-2.274 19.946-3.956 29.999-4.999 11.764-1.221 23.727-1.595 35.555-1.111 4.264.175 7.578 3.772 7.404 8.036s-3.764 7.579-8.036 7.404c-11.087-.454-22.301-.103-33.328 1.042-9.423.978-18.884 2.555-28.12 4.687-4.068.937-8.295-1.59-9.265-5.793z" fill="#f07281"/></g></g></g></g></g></svg>